<svg preserveAspectRatio="none" overflow="visible" style="display: block;" width="60.4116" height="35.4574" viewBox="0 0 60.4116 35.4574" fill="none" xmlns="http://www.w3.org/2000/svg">
<path id="Arrow Handdrawn" d="M4.52878 0.0438824C5.10019 0.418319 5.70228 1.0931 6.12517 1.65842C6.25901 1.83613 6.036 1.924 6.12236 2.05389C6.29177 2.30784 6.56504 2.40428 6.72467 2.66868C6.77532 2.75573 6.46764 2.93511 6.52613 3.02085C6.8527 3.49252 7.31053 3.7658 7.69743 4.18205C7.97561 4.48052 8.24694 4.76592 8.53271 5.05715C9.95329 6.53517 11.9405 7.86661 13.9188 9.13827C14.6879 9.63005 15.5265 10.4304 16.4313 10.7507C16.5368 10.7877 16.6143 10.4957 16.6441 10.4838C17.1073 10.3051 16.7369 10.7834 16.8921 10.9523C16.8977 10.9585 16.9034 10.9646 16.9092 10.9707C17.5105 11.6226 18.344 12.0503 19.1237 12.2755C19.459 12.3711 19.3814 11.6959 19.5637 12.136C19.5768 12.166 19.3709 12.4174 19.4438 12.4859C19.6116 12.6421 20.0075 12.7509 20.1528 12.8385C20.4302 13.0082 20.4812 13.0257 20.7617 13.1436C21.1436 13.3066 21.5514 13.6329 21.9962 13.7236C22.0911 13.7419 22.0855 13.3973 22.2464 13.399C22.4081 13.4014 22.774 13.5638 22.8769 13.6805C22.9782 13.7971 22.8401 14.0156 22.8433 14.0781C22.8682 14.6055 23.5366 14.1215 23.5962 14.1237C24.1794 14.1673 24.6658 14.3581 25.141 14.5746C25.5872 14.7776 26.0124 15 26.4759 15.1251C27.2052 15.3228 27.9806 15.3544 28.6715 15.4694C29.4612 15.6029 30.1556 15.8227 30.9746 15.8646C31.0091 15.8663 31.0441 15.8677 31.0795 15.8687C31.1704 15.8717 31.0879 15.4884 31.199 15.4912C32.375 15.5197 33.557 15.6039 34.7423 15.8889C34.8613 15.9177 34.6989 16.2451 34.8174 16.2937C35.542 16.5849 36.7064 17.255 37.1532 15.815C37.6483 15.8754 38.2484 15.9346 38.6932 16.2232C38.9794 16.4088 38.7039 16.7714 39.0555 16.615C39.1342 16.5801 39.0292 16.2649 39.1469 16.2363C39.5855 16.1308 40.0615 16.1908 40.4977 16.0865C40.5554 16.0722 40.6123 16.0547 40.668 16.0332C40.7618 15.9961 40.7255 15.7139 40.7501 15.6619C40.9531 15.242 41.3554 15.9021 41.4442 15.9451C42.0948 16.2701 42.5486 16.0737 43.129 16.0003C43.264 15.9829 43.0504 15.6297 43.177 15.5994C43.8324 15.447 44.5175 15.3465 45.208 15.3585C45.362 15.3619 45.3024 15.7087 45.3804 15.7263C45.7266 15.7981 45.6473 15.1869 45.9727 15.2396C46.0415 15.2497 46.0767 15.5272 46.0958 15.5537C46.3971 15.9693 46.3787 15.2719 46.419 15.2453C46.9385 14.8902 47.5089 15.4582 48.0459 15.1858C48.1094 15.1525 47.8529 14.8652 48.0371 14.7923C49.0031 14.4073 50.054 14.0896 51.1228 13.884C51.4082 13.829 51.6865 13.7841 51.9706 13.7446C52.1766 13.7161 52.1297 14.0133 52.1528 14.0396C52.5264 14.4446 52.4188 13.7592 52.4745 13.7115C52.9054 13.3572 53.5694 13.7154 53.6088 12.8302C54.0927 12.7098 54.5645 12.5476 55.0105 12.3657C55.2337 12.2744 55.4491 12.179 55.6503 12.0809C55.7487 12.0328 55.8431 11.984 55.9166 11.9424C55.9536 11.9215 55.984 11.9025 55.9894 11.8987C55.9911 11.8979 55.9866 11.8995 55.955 11.9257C55.9346 11.9435 55.9203 11.9536 55.8663 12.0108C55.8231 12.0673 55.7299 12.1304 55.6096 12.443C55.5541 12.5974 55.5257 12.8201 55.5707 13.0352C55.614 13.2493 55.7073 13.3992 55.7718 13.483C55.9116 13.6536 55.9576 13.657 55.9683 13.6673C55.986 13.6729 55.892 13.6232 55.7929 13.5838C55.5848 13.4987 55.3119 13.4058 55.0374 13.3053C54.4822 13.1037 53.8987 12.8624 53.3371 12.5252C53.3113 12.5105 53.4375 12.1959 53.3857 12.168C52.7576 11.8256 52.7685 12.3633 52.1598 12.8679C52.0043 12.994 51.8508 12.1591 51.8361 12.0965C51.7786 11.8661 52.0221 11.4151 51.9955 11.3663C51.7794 10.9807 51.3937 12.5859 50.9698 12.4656C50.9574 12.4592 51.0967 12.1835 51.0698 12.1443C50.987 12.0218 50.8465 12.1062 50.7697 11.9741C50.5946 11.6683 50.7544 10.8804 50.2514 11.2064C50.1861 11.248 49.965 12.1625 49.6024 11.9914C49.5295 11.9563 49.3236 11.8836 49.116 11.7995C48.8145 11.6766 48.6413 11.5729 48.5636 11.5037C48.406 11.3595 48.6655 11.1508 48.6579 11.1326C48.3732 10.5457 48.6193 10.4827 48.6715 9.84654C48.7182 9.20829 48.133 10.484 47.9696 10.575C47.8056 10.6654 47.633 10.2006 47.608 10.057C47.5815 9.91282 47.773 9.79848 47.732 9.70285C47.4705 9.08035 47.1966 10.2042 46.9348 10.3152C46.3168 10.578 46.537 9.51125 46.2562 9.23779C46.1814 9.16446 46.1379 9.41149 46.0482 9.38668C45.6912 9.28364 45.6634 8.89555 45.1596 8.95157C45.0782 8.96115 44.4784 9.33889 44.5203 8.83401C44.5269 8.76151 44.7305 8.57964 44.6263 8.45295C44.4707 8.26329 44.1428 8.00853 43.8853 7.95891C43.6957 7.92276 43.6612 8.39668 43.5301 8.16681C43.4723 8.06455 43.7602 7.94338 43.6416 7.76948C43.5215 7.59488 43.0984 7.35891 42.9344 7.27155C42.7723 7.18579 42.6934 7.51545 42.6695 7.52667C42.5297 7.58925 42.1396 7.53845 42.1151 7.52318C41.6371 7.25271 41.2085 6.92698 40.796 6.58214C40.5899 6.40954 40.3848 6.23084 40.1789 6.04575C40.0742 5.95114 39.9737 5.86106 39.846 5.7379C39.8072 5.70053 39.7895 5.68214 39.7311 5.62032C39.6969 5.5829 39.6601 5.54459 39.6072 5.46179C39.594 5.44058 39.5797 5.41588 39.5647 5.38488C39.5313 5.30861 39.4522 5.16091 39.506 4.89708C39.5575 4.62176 39.8318 4.41596 39.9734 4.38143C40.1162 4.33974 40.0977 4.35317 40.1482 4.34598C40.413 4.3415 40.4515 4.38956 40.4956 4.39856C40.542 4.41574 40.5863 4.43423 40.6337 4.45481C41.1032 4.68325 41.5093 4.8978 41.9735 5.05355C42.0882 5.09291 42.1626 4.7501 42.1816 4.75292C42.6265 4.80694 41.9408 5.48538 42.0616 5.88061C42.3255 5.23856 42.4206 5.42327 42.7225 5.48567C42.8613 5.51191 42.9123 5.23826 42.9354 5.21898C43.2978 4.94219 43.2019 5.48165 43.1887 5.59509C43.1401 6.01257 43.4744 5.65543 43.4429 5.93519C43.411 6.21257 43.0437 6.46571 43.2983 6.58591C43.4798 6.39893 43.5774 5.72391 43.8184 5.72591C44.7161 5.72586 45.8144 6.84752 46.3655 7.18599C46.912 7.52173 47.1171 7.57472 47.4097 7.82396C47.9371 8.27412 47.934 7.7329 48.4079 7.72726C48.8821 7.72195 48.1622 8.68335 48.1003 8.9374C48.0374 9.19076 48.2138 8.98692 48.2158 9.14488C48.2175 9.30269 47.9975 9.3846 48.1272 9.50973C48.257 9.63485 48.8831 9.44682 49.0587 9.23787C49.4305 8.79503 49.5108 8.17163 49.8225 8.56469C49.8403 8.58765 49.6225 8.82574 49.6978 8.89966C50.2998 9.47705 51.0334 9.87046 51.6448 10.4233C51.7294 10.5002 51.4833 10.7629 51.5307 10.811C52.0197 11.3118 52.0743 10.6834 52.6978 10.2751C52.2308 11.0053 52.1642 11.5648 52.6132 11.802C52.8823 11.9445 53.0079 11.5853 53.3014 11.4378C53.3893 11.393 53.4663 11.7239 53.5814 11.5838C53.961 11.1278 54.0797 10.4591 54.4207 10.9258C54.4359 10.9474 54.2243 11.1951 54.2872 11.2492C54.6839 11.5955 55.0213 11.0877 55.5368 11.2713C55.9515 11.4206 56.4645 12.1016 56.8715 12.3788C56.4387 13.1684 56.8747 13.2511 57.297 12.8408C57.3324 12.8102 57.3678 12.7766 57.403 12.7404C57.6919 12.9225 58.0448 13.0619 58.3237 13.4039C58.4178 13.5246 58.1577 13.6727 58.1526 13.708C58.0908 13.9704 58.1739 13.9969 58.3187 14.0161C58.4607 14.031 58.6612 14.0551 58.6999 14.1261C58.8043 14.3105 58.8289 14.5707 58.7854 14.7621C58.7446 14.9566 58.6638 15.0988 58.5889 15.2061C58.4321 15.424 58.2689 15.5461 58.1184 15.6645C57.8167 15.8952 57.5462 16.0953 57.3948 16.5086C57.3848 16.5375 57.7479 17.1076 57.2996 16.8255C57.2701 16.805 57.283 16.4165 56.9929 16.5981C56.8923 16.6608 56.7392 16.7099 56.5701 16.7724C56.342 16.8244 56.012 17.0482 55.9781 17.3943C55.9523 17.5362 56.2152 18.0703 55.7391 17.9789C55.6763 17.9641 55.5458 17.8182 55.4363 17.7825C55.0838 17.6735 55.5705 18.1556 55.0108 17.9315C54.454 17.7037 53.8838 17.7325 53.9276 18.344C53.9278 18.3633 54.296 18.7731 54.2 18.8895C54.0473 19.0736 53.7667 19.2695 53.6203 19.4802C53.555 19.5747 53.8704 19.7099 53.8638 19.7297C53.56 20.4785 52.9931 20.7684 52.4024 21.3924C52.2918 21.509 52.4188 22.129 51.9469 22.1767C51.4336 22.2242 50.273 21.0076 50.1631 21.8587C50.1166 22.2028 51.6193 23.7027 50.4147 23.5445C50.0279 24.5783 49.0135 25.0718 48.7115 26.1674C48.6978 26.2164 49.0866 26.6765 49.0147 26.7648C48.907 26.895 48.631 26.8135 48.547 26.9011C48.1894 27.2638 48.1102 27.7753 47.7967 28.147C47.6782 28.2881 47.488 28.0707 47.3457 28.2397C47.2039 28.4082 47.4165 28.746 47.0966 28.8784C46.8531 28.9786 46.1095 28.709 45.8633 28.8903C46.4549 29.3476 46.3222 29.5 46.2575 29.9115C46.2455 29.9905 46.4982 30.0881 46.5032 30.1337C46.5278 30.3229 46.2807 30.291 46.3188 30.4809C46.3277 30.5268 46.5292 30.6837 46.5478 30.7301C46.7118 31.134 46.0339 31.0687 45.9185 31.0533C45.4755 31.0022 45.6681 31.2935 45.4365 31.3437C45.2066 31.3914 45.2297 31.0639 45.0272 31.1711C44.6124 31.3881 44.2887 31.8443 43.9953 32.1666C43.8776 32.2983 44.2142 32.4299 44.2034 32.454C44.028 32.7895 43.5171 32.8151 43.8776 33.4256C42.4173 32.4179 43.8596 33.701 43.2296 33.8454C43.1797 33.8555 42.5549 33.3073 42.5732 33.1144C42.5911 32.9219 42.9427 32.9291 42.9441 32.6474C42.9462 32.58 42.563 31.8453 42.5529 31.7853C42.4747 31.3205 43.4328 32.1076 43.4958 32.1395C44.1725 32.4837 43.7768 31.6568 43.7874 31.5539C43.8577 31.0594 44.2222 30.8886 44.2984 30.491C44.3501 30.2305 43.7287 29.706 43.8584 29.582C44.292 29.1635 45.3245 29.6798 44.8905 28.6256C44.7978 28.4003 44.0159 27.9631 44.836 28.0334C44.8873 28.0386 45.5963 28.1566 45.3854 27.7616C45.3586 27.712 45.1501 27.5588 45.1512 27.5207C45.1616 27.2695 45.4106 27.2788 45.4663 27.0349C45.5224 26.7904 45.5642 26.4818 45.7885 26.3204C45.9233 26.2231 46.4341 26.3381 46.5747 26.3444C46.9766 26.3672 46.6558 25.8559 47.0689 25.9855C47.4847 26.1147 47.8443 26.6947 48.2683 26.5587C47.7269 26.1595 47.1808 25.7363 46.6406 25.3288C47.1052 24.7127 47.7191 24.2123 48.1393 23.5535C48.1908 23.4715 47.8373 23.347 47.8848 23.2539C48.0848 22.8639 48.5167 22.6917 48.6884 22.2615C48.8225 21.9244 48.7257 21.3898 48.8558 21.0306C49.6202 21.2773 49.7116 20.6838 50.0004 20.3895C50.1001 20.288 50.2638 20.4126 50.3753 20.3693C50.7906 20.2049 50.133 19.9601 50.1041 19.8139C49.9868 19.1819 51.2643 20.0402 51.5374 19.5832C51.5523 19.5591 51.0757 18.8099 51.0606 18.7429C50.9582 18.3099 51.3212 18.8688 51.48 18.749C51.7734 18.526 52.0594 18.4617 52.1081 17.9834C52.1208 17.8442 51.8674 17.3225 52.3308 17.3606C52.3909 17.3664 52.599 17.5411 52.6265 17.5307C53.1011 17.3345 52.426 16.8161 52.3581 16.4281C52.284 16.0479 53.0143 16.0714 53.1965 16.1162C53.6739 16.2223 53.2392 16.3625 53.2646 16.4007C53.5803 16.8278 53.697 16.536 53.8679 16.3957C54.5388 16.894 54.7 16.6228 54.057 16.2322C53.9862 16.1898 53.9284 16.3816 53.8679 16.3957C53.366 15.7148 53.5374 15.3411 54.4001 15.542C54.8096 15.6412 54.9395 16.0737 55.3257 15.5171C55.4408 15.3716 55.3694 15.1968 55.308 15.0092C55.2396 14.863 55.1733 14.7141 55.2052 14.6027C55.36 14.0512 56.1535 14.138 56.3505 13.8533C56.411 13.7588 56.1267 13.5902 56.1524 13.5243C56.1781 13.4445 56.2265 13.4382 56.2029 13.5221C56.2018 13.6091 55.99 13.8033 55.9164 14.5178C55.9148 14.6525 55.5504 14.3159 55.5975 14.8163C55.7215 15.537 56.0407 15.8139 56.1296 15.9065C56.2396 16.0036 56.2541 15.9867 56.2384 15.96C56.2013 15.8975 56.0488 15.7627 55.8712 15.6387C55.7147 15.5334 55.5288 15.4189 55.3422 15.321C55.0023 15.143 54.3216 14.9961 53.9954 14.7865C53.4222 14.4213 52.9032 13.6138 52.3336 13.451C51.9686 13.3466 51.8899 13.677 51.6435 13.8027C51.1599 14.0433 51.0381 13.1031 51.0223 12.9592C51.0226 12.9548 51.3483 13.0351 51.2711 12.8049C51.3424 12.445 51.0263 12.9595 51.0223 12.9592C51.0157 12.8679 50.4755 12.5057 50.3312 12.5024C50.2539 12.5014 50.1454 12.7969 50.1078 12.7911C49.2093 12.6434 48.4061 12.3205 47.6919 11.791C47.681 11.7784 47.8608 11.4779 47.8333 11.452C47.4521 11.0826 46.9688 11.3158 46.4809 11.3519C45.9929 11.388 45.7375 11.1628 45.7879 10.5156C45.4752 10.4414 45.1874 9.99824 45.0309 9.73882C44.8721 9.47822 44.5308 10.0679 44.5047 10.0698C43.6812 10.1363 43.4779 9.59827 42.8526 9.21856C42.5439 9.03094 41.8871 8.8157 41.514 8.71609C41.2223 8.64005 41.1286 8.41721 40.843 8.39263C40.805 8.38944 40.706 8.67789 40.6911 8.68369C40.2698 8.88321 40.7135 8.27512 40.7152 8.12925C40.7193 7.59851 40.692 7.3011 40.2672 7.35412C40.1538 7.35884 39.5027 8.23426 39.3719 8.24672C39.2431 8.26839 39.3508 7.99741 39.3428 7.99152C39.3469 7.99263 39.3543 8.00023 39.3819 8.02012C39.3936 8.02778 39.3773 8.08669 39.3987 8.15405C39.4175 8.18952 39.4097 8.21921 39.5181 8.26653C39.5985 8.29396 39.7002 8.33162 39.9794 8.36035C40.1239 8.37187 40.3135 8.3874 40.6508 8.34575C40.7357 8.3346 40.8306 8.31888 40.9382 8.29476C41.0845 8.26371 41.5261 8.14702 41.9457 7.88393C42.89 7.44237 43.7204 5.6651 43.5072 4.73009C43.4468 4.17194 43.2978 3.83714 43.1841 3.59841C43.1327 3.49514 43.0984 3.43535 43.059 3.36905C42.983 3.24251 42.9172 3.15048 42.8605 3.07579C42.747 2.92794 42.668 2.8461 42.6071 2.784C42.4712 2.6504 42.4759 2.66342 42.4377 2.63105C42.381 2.58712 42.3674 2.58301 42.3665 2.58707C42.3624 2.59426 42.4015 2.63371 42.4379 2.67012C42.5267 2.75433 42.6352 2.8504 42.7487 2.94554C42.9897 3.14478 43.2468 3.33794 43.5339 3.49999C43.6093 3.54336 43.709 3.1661 43.8216 3.22372C44.3563 3.4982 44.9258 3.85278 45.3534 4.30638C45.4584 4.41921 45.2463 4.59833 45.2347 4.68163C45.1695 5.18861 45.7528 4.73731 45.7998 4.74954C46.9134 5.01573 47.343 5.97222 48.4595 6.25494C48.5231 6.27064 49.2769 5.84953 49.1598 6.50073C49.1522 6.54422 49.0222 7.20528 49.3916 6.9047C49.4139 6.88542 49.4618 6.53565 49.6361 6.66733C49.8128 6.80016 50.2227 6.76697 50.3024 7.21491C50.3219 7.3532 50.2528 8.03701 50.6353 7.64906C50.6352 7.63203 50.8353 7.44424 50.8201 7.23308C51.0131 7.06282 51.1945 6.97533 51.1223 7.40919C51.0997 7.53994 50.7994 8.33089 51.2357 8.02132C51.3187 7.96046 51.2764 7.74828 51.4606 7.68528C51.7398 7.58645 51.9805 7.89752 52.3725 7.61913C52.4429 7.57028 52.8058 7.07813 52.864 7.5442C52.8733 7.61727 52.7476 7.87514 52.8317 7.93051C53.2344 8.19574 53.7577 8.13097 54.1908 8.43324C54.3446 8.53978 54.1524 8.96255 54.3058 9.12365C54.4545 9.28366 54.8026 9.48406 55.0428 9.32596C55.2887 9.1692 55.235 8.41145 55.5467 8.42441C55.9968 8.44721 56.4315 8.53562 56.9884 8.72611C57.2738 8.82806 57.5616 8.93123 58.0584 9.1882C58.3217 9.33795 58.609 9.46032 59.1754 9.97118C59.4567 10.246 59.8462 10.6346 60.1649 11.4269C60.4967 12.2101 60.4797 13.3385 60.1982 14.0426C60.0619 14.4257 59.9065 14.6829 59.7728 14.8797C59.6348 15.077 59.5715 15.1462 59.4839 15.2457C59.3101 15.4362 59.2198 15.5108 59.1273 15.5903C58.9425 15.7439 58.8466 15.8043 58.7539 15.8651C58.574 15.9795 58.4567 16.0385 58.3552 16.0888C58.1489 16.1895 57.9922 16.2523 57.844 16.3113C57.5512 16.4261 57.299 16.5162 57.0534 16.613C56.8479 16.693 57.1191 16.8587 56.8274 16.9897C55.7644 17.4704 54.1002 18.346 53.0358 18.1355C52.1883 17.9662 52.9571 17.3379 52.3628 17.3567C52.356 17.3569 52.3493 17.3577 52.3428 17.3589C52.0809 17.4065 52.0836 18.2584 52.0314 18.304C51.5173 18.7688 50.9714 18.5611 50.4523 18.8552C50.3443 18.9162 50.5655 19.2031 50.4721 19.2514C50.1545 19.4193 49.7485 19.3903 49.4289 19.5198C49.2852 19.5788 49.3901 19.8197 49.2472 19.8428C48.9054 19.9009 48.5801 19.8835 48.1879 19.7413C48.1526 19.7282 48.2606 19.3592 48.013 19.4175C47.6107 19.513 47.056 19.4125 46.6492 19.769C46.5288 19.8755 46.6612 20.4587 46.2631 20.1282C46.1792 20.0589 46.103 19.3422 45.8867 20.025C45.8552 20.1386 45.4134 21.0862 45.0078 20.6123C44.9015 20.4881 44.5979 19.9473 44.4431 20.0671C44.4219 20.0856 44.5707 20.3857 44.4314 20.441C43.9383 20.6302 43.3924 20.6724 42.869 20.8304C42.7283 20.8731 42.979 21.1802 42.7658 21.2332C42.1788 21.3799 41.4217 21.3462 40.8369 21.2599C40.6209 21.2277 40.7615 20.9483 40.7448 20.9189C40.6969 20.8316 40.6538 20.7821 40.6146 20.7596C40.4554 20.6585 40.3602 21.1056 40.3006 21.1382C39.8346 21.3769 39.4743 21.0727 39.0473 21.1577C38.9292 21.1802 39.0152 21.4928 38.9918 21.5209C38.7476 21.7952 38.9273 21.2317 38.7729 21.1706C38.3402 20.9972 37.8617 21.022 37.427 21.0596C37.2671 21.0738 37.4448 21.438 37.3008 21.4465C36.4512 21.5037 35.5691 21.4553 34.746 21.2353C34.5913 21.1931 34.6961 20.916 34.6653 20.8513C34.4533 20.3993 34.11 20.9993 34.0325 21.0551C33.6805 21.3098 33.5546 21.0583 33.249 21.0937C32.4441 21.1889 31.5359 21.1587 30.6317 21.0659C29.855 20.9864 29.0726 20.8584 28.3618 20.721C26.5495 20.3818 25.0949 19.7417 23.6642 19.2953C23.4923 19.2419 23.3135 19.189 23.132 19.1384C23.0234 19.1077 23.018 19.4968 22.9222 19.4746C21.692 19.1717 20.5567 18.6158 19.3284 18.2487C19.2276 18.2178 19.24 18.6017 19.0728 18.5626C18.7293 18.4847 18.3262 18.3001 18.0446 18.0598C17.9078 17.9436 18.2363 17.7533 18.0968 17.6421C17.7723 17.3825 17.3909 17.1896 16.993 17.0732C16.8236 17.0243 16.9168 17.4616 16.7069 17.3718C15.8607 17.0133 15.0248 16.6443 14.243 16.1587C13.7204 15.8318 13.2216 15.454 12.7636 14.9904C12.6868 14.9127 12.955 14.2247 12.6948 14.2434C12.5831 14.4143 12.4697 14.625 12.3595 14.8126C10.3768 13.8644 8.62407 12.5592 6.7454 11.2389C6.66515 11.1822 6.5868 11.5991 6.42966 11.4903C5.77455 11.0348 5.09183 10.61 4.47859 9.95481C4.28653 9.73859 4.11633 9.50759 3.96384 9.24155C3.90988 9.14742 4.38828 8.65685 4.08813 8.54091C4.03664 8.52261 3.62548 8.29732 3.44279 8.33744C3.41584 8.34402 3.27562 8.64273 3.1558 8.55423C2.4676 8.03932 1.8289 7.40112 1.30448 6.68954C1.22059 6.5745 1.55426 6.41419 1.497 6.33048C1.08622 5.7362 0.338865 5.42193 0.0426554 4.73856C-0.151051 4.28314 0.36548 3.95864 0.580984 3.37338C0.613051 3.29226 0.419691 3.09841 0.638102 2.84288C1.17838 2.19152 1.89902 1.59534 2.46386 0.891011C2.60276 0.752895 2.10351 0.59075 2.63188 0.431251C2.67688 0.428502 2.99067 0.503323 3.1428 0.426927C3.25097 0.37669 3.42094 0.068912 3.58388 0.0269337C3.74727 -0.0144656 3.6253 0.262274 3.84707 0.240094C4.06815 0.214312 4.28131 -0.116992 4.52878 0.0438824ZM44.3069 8.56836C44.2389 8.16866 43.6711 9.22235 44.0308 9.08263C44.0489 9.07464 44.3108 8.58826 44.3069 8.56836ZM48.4574 24.7297C49.0705 24.7727 48.5554 24.1538 48.0946 24.103C47.6343 24.052 48.2714 24.7169 48.4574 24.7297ZM46.8876 27.6116C47.4397 27.5583 46.0964 26.5205 46.1468 27.0362C46.1493 27.0658 46.8555 27.6147 46.8876 27.6116ZM1.50447 3.98495C1.51071 3.9693 1.37718 3.82928 1.3611 3.83595C1.02883 4.04862 1.30435 4.33594 1.50447 3.98495ZM45.2837 30.448C45.535 30.4998 45.5301 30.0738 45.2166 30.0124C44.9649 29.9628 44.9717 30.3834 45.2837 30.448ZM46.5322 8.72307C46.5262 8.74016 46.6415 8.82289 46.6883 8.73356C46.8371 8.44495 46.6236 8.43064 46.5322 8.72307ZM41.6313 34.448C42.2532 34.0214 43.6161 34.6439 42.7976 35.1766C42.6499 35.2685 42.7811 34.5946 42.5326 34.6462C42.1013 34.7207 42.4397 35.583 41.8284 35.4418C41.7298 35.409 41.5988 34.4701 41.6312 34.4456C41.6313 34.4464 41.6313 34.4472 41.6313 34.448ZM44.8281 7.22205C44.8307 7.20564 44.6662 7.10637 44.6553 7.11847C44.3926 7.4116 44.7232 7.61148 44.8281 7.22205ZM53.9203 12.3248C53.9228 12.36 54.3528 12.4913 54.3755 12.4648C54.7444 11.9125 53.8722 11.644 53.9203 12.3248ZM56.8661 12.4052C57.1999 12.1831 57.4437 12.2331 57.4093 12.6205C57.4093 12.6573 57.407 12.697 57.4022 12.7395C57.389 12.7307 57.3756 12.722 57.362 12.7133C57.2149 12.6146 57.0318 12.5151 56.8661 12.4052Z" fill="#E3D8C1"/>
</svg>
