<svg preserveAspectRatio="none" overflow="visible" style="display: block;" width="847.612" height="459.796" viewBox="0 0 847.612 459.796" fill="none" xmlns="http://www.w3.org/2000/svg">
<path id="Background Graphic" d="M344.189 348.698C337.395 357.262 330.571 365.745 323.773 374.118C314.328 385.755 304.947 397.157 295.707 408.413C291.13 413.99 286.501 419.641 282.181 424.994C278.007 430.127 273.114 436.498 272.776 436.917C273.52 435.588 274.554 433.798 276.018 430.2C276.81 427.707 277.282 428.583 279.365 418.119C280.324 410.09 283.88 386.973 259.637 364.853C232.953 344.656 214.641 352.157 208.679 352.802C205.007 353.718 202.636 354.628 200.782 355.383C197.129 356.913 195.498 357.928 194.801 358.315C193.089 359.316 192.361 359.857 192.117 360.038C191.804 360.273 191.716 360.362 191.747 360.36C191.907 360.335 193.173 359.438 194.298 358.605C196.738 356.792 199.656 354.488 202.558 352.16C208.374 347.492 214.477 342.44 220.542 337.382C233.086 326.915 243.742 317.819 258.626 305.218C302.336 270.21 346.293 235.05 390.448 198.144C435.633 162.061 465.945 129.02 531.741 88.995C536.531 87.039 540.295 84.5065 553.641 82.7334C558.084 82.2989 563.565 82.1627 570.382 83.4559C576.502 84.3697 589.832 89.2628 598.417 98.034C607.413 106.698 612.069 117.458 613.855 125.645C615.403 132.797 615.361 137.365 615.174 141.677C613.889 156.059 611.571 159.409 609.93 164.293C608.443 168.067 606.867 171.376 605.58 173.962C600.199 184.56 595.617 191.754 590.944 199.139C581.703 213.538 572.486 226.639 563.253 239.531C544.786 265.241 526.011 289.966 507.685 314.121C485.858 343.099 465.01 369.908 446.507 398.269C439.468 408.719 432.423 418.766 425.08 428.871C421.334 434.009 417.677 438.998 413.295 444.707C412.737 445.433 412.222 446.093 411.779 446.659C411.557 446.944 411.363 447.192 411.224 447.367C411.109 447.511 410.983 447.677 411.219 447.347C411.363 447.139 411.5 446.97 412.269 445.821C412.462 445.53 412.662 445.226 412.972 444.734C413.426 444.008 414.01 443.074 414.9 441.431C415.347 440.6 415.874 439.585 416.525 438.175C416.687 437.822 416.858 437.443 417.036 437.031C417.05 437.001 417.406 436.174 417.648 435.569C417.912 434.911 418.193 434.181 418.488 433.349C419.577 429.914 421.446 425.499 421.832 414.987C422.391 405.852 418.828 381.115 396.706 365.947C377.847 353.726 364.45 355.405 356.323 356.066C340.472 358.693 337.637 361.985 334.238 363.551C333.866 363.769 333.524 363.974 333.206 364.169C333.004 364.293 332.936 364.336 332.806 364.417C332.571 364.563 332.35 364.704 332.14 364.839C331.721 365.109 331.349 365.357 331.01 365.586C330.335 366.044 329.795 366.43 329.335 366.767C328.419 367.439 327.811 367.921 327.33 368.308C326.665 368.846 326.365 369.107 326.065 369.365C325.471 369.882 325.394 369.961 325.264 370.081C325.058 370.276 325.147 370.202 325.262 370.099C325.377 369.996 325.535 369.852 325.747 369.655C327.348 368.167 329.6 366.01 331.64 364.066C335.788 360.106 340.103 355.986 344.33 351.97C352.858 343.865 361.334 335.867 369.954 327.772C439.034 263.107 508.42 199.3 578.607 135.779C590.1 125.402 601.566 115.1 613.195 104.806C619.094 99.5846 624.936 94.4493 631.088 89.1594C634.183 86.5016 637.272 83.8717 640.792 80.9758C642.562 79.5235 644.396 78.0331 646.682 76.2704C649.106 74.478 651.465 72.4027 658.032 68.6342C659.024 68.0883 660.133 67.4673 662.29 66.46C663.46 65.9263 664.732 65.344 667.132 64.4845C667.717 64.2777 668.325 64.0726 669.048 63.8468C669.891 63.5839 670.825 63.3141 671.886 63.0464C672.948 62.7791 674.136 62.5134 675.497 62.2705C676.996 62.0016 679.127 61.6982 681.481 61.559C685.585 61.4136 694.196 60.8665 706.047 66.179C719.545 71.4429 731.901 88.8285 733.8 98.7626C738.089 119.195 734.257 122.111 733.802 126.422C731.79 133.177 730.717 134.666 729.825 136.593C726.711 142.429 725.811 143.306 724.59 145.152C722.395 148.253 720.805 150.281 719.173 152.374C715.983 156.435 712.994 160.086 710.057 163.651C709.165 164.734 708.33 165.742 707.433 166.825C683.187 195.92 659.008 224.019 635.159 252.128C620.588 269.407 610.267 281.921 600.256 299.877C585.289 324.826 572.272 341.142 559.095 359.933C552.6 369.043 546.232 378.067 540.581 386.636C537.789 390.873 535.129 395.101 533.232 398.434C532.334 399.976 531.551 401.576 531.542 401.441C531.536 401.268 531.804 400.836 532.336 397.846C532.451 397.148 532.633 395.871 532.72 394.43C532.766 393.693 532.795 392.871 532.789 391.949C532.785 391.485 532.774 391.01 532.75 390.481C532.72 389.828 532.671 389.132 532.596 388.389C532.281 385.408 531.62 381.725 529.735 377.175C527.597 371.935 523.451 365.799 517.83 361.315C511.998 356.478 503.99 353.505 497.815 352.884C491.864 352.205 487.505 353.021 485.054 353.596C479.635 355.012 478.499 356.023 477.54 356.513C476.738 357.009 476.718 357.106 476.899 357.013C477.108 356.905 477.538 356.623 478.084 356.222C480.317 354.59 483.758 351.586 487.144 348.458C494.031 342.089 501.417 334.764 508.95 327.361C524.014 312.52 539.712 297.253 556.397 282.526C567.206 273.011 578.092 263.461 589 253.91C644.181 205.663 699.524 157.508 755.468 109.745C766.65 100.307 776.817 91.3282 790.315 81.0749C792.26 79.6466 794.002 78.3551 797.081 76.4281C797.465 76.1912 797.86 75.953 798.272 75.7123C798.728 75.4446 799.3 75.1179 799.867 74.8123C800.443 74.5015 801.058 74.1841 801.735 73.8583C802.544 73.4678 803.572 73.0044 804.728 72.5613C805.312 72.3373 805.943 72.1115 806.639 71.8886C807.363 71.6542 808.58 71.2999 809.786 71.0393C812.53 70.5888 814.487 69.7701 821.677 70.6838C824.959 71.2194 828.654 72.3165 832.562 74.6297C836.71 77.0603 840.393 80.7621 842.731 84.4777C847.239 92.0675 847.188 95.8836 847.576 99.6056C847.791 104.984 847.008 107.658 846.674 109.283C846.462 110.179 846.231 111.009 846.02 111.702C845.839 112.291 845.658 112.84 845.476 113.363C845.294 113.886 845.111 114.381 844.928 114.86C844.774 115.259 844.621 115.642 844.466 116.018C844.167 116.747 843.81 117.57 843.561 118.115C842.421 120.628 841.401 122.594 840.438 124.417C836.533 131.712 832.922 137.757 829.247 144.055C791.027 203.667 744.396 241.236 703.872 286.261C679.302 313.157 653.618 342.097 643.576 370.739C643.987 368.946 644.929 366.171 643.675 360.742C642.779 355.27 635.953 348.157 630.546 347.031C625.195 345.549 622.394 346.362 620.589 346.692C618.793 347.121 617.859 347.537 617.139 347.849C616.26 348.254 616.455 348.177 616.283 348.261C616.175 348.316 616.075 348.369 615.984 348.419C615.8 348.519 615.646 348.607 615.511 348.685C614.98 348.999 614.736 349.173 614.578 349.285C614.273 349.507 614.389 349.442 614.431 349.418C614.496 349.38 614.612 349.302 614.763 349.192C614.907 349.089 615.13 348.919 615.254 348.829C615.818 348.415 616.795 347.639 617.456 347.12C619.074 345.83 620.6 344.592 622.311 343.185C625.515 340.559 628.908 337.729 632.128 335.045C638.733 329.529 645.329 323.99 651.943 318.447C665.193 307.339 678.455 296.26 691.842 285.23C718.663 263.265 745.355 241.264 774.378 220.957C777.773 218.625 781.263 216.273 784.982 213.977C788.083 212.081 791.231 210.209 795.221 208.42C797.306 207.551 799.31 206.581 803.28 205.976C805.182 205.812 808.272 205.274 812.786 207.564C817.585 209.957 819.746 215.689 819.893 218.027C820.397 223.453 819.366 225.404 818.748 227.763C818.012 230.045 817.255 231.808 816.451 233.58C814.84 237.085 813.148 240.179 811.355 243.305C787.118 273.245 757.794 284.782 740.293 305.87C739.227 307.531 738.317 309.041 737.55 310.516C737.355 310.895 737.191 311.224 737.04 311.548C736.87 311.915 736.737 312.228 736.636 312.479C736.527 312.751 736.446 312.999 736.412 313.089C736.367 313.187 736.392 313.208 736.353 312.732C736.327 312.51 736.293 312.249 736.154 311.808C736.005 311.338 735.734 310.753 735.299 310.193C734.84 309.59 734.199 309.062 733.606 308.746C733.05 308.444 732.545 308.299 732.174 308.233C731.514 308.126 731.289 308.202 731.272 308.213C731.249 308.233 731.388 308.226 731.582 308.188C732.421 308.025 733.861 307.459 735.241 306.8C738.044 305.462 740.99 303.709 743.861 301.871C749.604 298.16 755.328 293.986 760.449 289.616C778.03 275.089 796.331 263.41 814.724 251.213C818.924 248.471 823.349 246.255 826.9 245.169C830.481 244.064 832.998 244.094 833.765 245.378C834.673 246.566 833.789 248.922 831.491 251.878C829.23 254.805 825.631 258.163 821.656 261.166C804.434 274.298 786.394 287.771 771.713 301.73C765.855 307.418 760.086 312.215 753.683 316.96C750.467 319.304 747.178 321.599 743.116 323.807C740.992 324.886 739.026 326.057 734.891 327.005C732.756 327.138 729.371 328.93 722.499 324.474C719.203 322.036 717.618 318.176 717.231 315.933C717.005 314.798 716.929 313.761 716.928 312.816C716.927 312.051 716.972 311.375 717.046 310.721C718.646 302 720.888 299.613 722.891 295.535C735.187 277.556 747.082 270.018 758.97 259.12C764.873 254.008 770.695 248.982 776.115 243.933C781.245 239.236 787.394 232.677 787.981 230.813C790.172 226.437 792.439 220.785 792.421 219.552C793.186 219.702 793.834 219.896 794.584 220.946C794.98 221.464 795.371 222.271 796.242 223.614C797.057 224.886 798.767 226.851 800.863 227.798C802.983 228.801 804.686 228.664 805.445 228.398C806.29 228.12 806.472 227.728 806.46 227.43C806.376 226.816 805.502 226.459 804.472 226.321C800.143 225.818 793.717 227.927 786.608 231.822C785.66 232.341 784.66 232.917 783.643 233.526C776.767 237.637 768.533 243.878 763.128 249.54C757.543 255.385 753.993 260.716 750.724 265.723C747.258 271.005 744.027 276.008 738.859 281.241C730.06 290.154 722.824 299.92 715.284 310.203C712.524 313.959 709.758 317.758 706.821 321.647C695.924 331.959 685.016 342.38 674.102 352.816C668.673 358.007 663.199 363.244 657.679 368.486C654.839 371.176 652.118 373.754 649.246 376.426C648.499 377.12 647.838 377.735 647.113 378.402C646.308 379.139 645.555 379.825 644.849 380.463C644.008 381.216 643.188 381.943 642.302 382.699C641.728 383.183 641.174 383.641 640.547 384.133C640.354 384.287 639.609 384.861 638.747 385.44C638.288 385.747 637.75 386.099 636.911 386.573C636.699 386.692 636.467 386.819 636.204 386.956C636.073 387.025 635.934 387.096 635.785 387.17C635.27 387.424 634.366 387.855 633.142 388.295C631.872 388.73 630.227 389.307 627.207 389.62C624.287 389.83 619.202 390.105 612.651 386.385C605.952 382.782 601.496 374.285 601.024 369.202C600.306 363.912 601.143 361.03 601.644 359.016C604.358 348.381 608.276 339.002 612.597 330.197C621.221 315.372 630.13 303.697 637.267 293.593C643.701 284.557 648.898 276.013 654.007 267.329C657.825 262.436 661.692 257.603 665.594 252.811C690.652 222.048 716.826 193.196 740.267 164.068C754.012 149.613 768.41 134.027 779.038 116.648C781.837 111.89 784.749 106.911 787.376 102.183C788.685 99.826 789.983 97.3876 790.75 95.7915C790.923 95.4381 791.075 95.1 791.103 95.0654C791.121 95.0409 791.105 95.1015 791.047 95.3076C791.001 95.4824 790.867 95.9219 790.696 96.7513C790.585 97.4193 790.139 99.137 790.267 102.536C790.397 104.838 790.738 108.106 792.742 112.435C794.892 117.836 802.142 124.425 807.632 126.064C813.246 128.143 818.072 127.708 819.684 127.518C821.843 127.262 823.41 126.809 824.385 126.492C825.979 125.964 826.908 125.481 827.286 125.285C827.841 124.99 828.009 124.863 828.007 124.854C828.024 124.831 827.867 124.92 827.706 125.019C827.534 125.124 827.286 125.287 827.008 125.477C826.759 125.645 826.472 125.845 826.152 126.075C824.899 126.97 823.481 128.043 821.934 129.245C818.935 131.576 815.843 134.059 812.679 136.615C806.39 141.699 799.973 146.941 793.738 152.031C793.224 152.45 792.706 152.873 792.183 153.3C772.929 169.057 754.977 183.894 740.445 198.406C730.756 208.086 719.552 217.202 708.388 226.297C693.427 238.486 678.481 250.69 667.273 264.245C660.234 272.761 654.041 280.938 648.328 288.499C639.26 300.51 631.311 311.045 622.817 319.145C616.796 324.886 611.264 330.499 606.118 335.944C598.005 344.58 591.037 353.062 584.635 361.025C572.261 376.423 562.034 389.865 549.689 399.729C547.782 401.258 545.566 402.954 543.012 404.865C539.393 407.575 535.255 410.677 529.567 414.704C526.607 416.767 523.484 419.011 518.327 421.995C515.747 423.41 512.597 425.292 506.669 427.243C503.38 428.235 499.532 429.365 492.918 429.319C486.618 429.373 476.611 426.795 469.587 420.788C464.344 416.585 460.519 410.586 458.733 405.719C457.113 401.437 456.554 397.674 456.371 394.552C456.103 389.385 456.849 385.569 457.314 383.411C458.475 378.359 459.67 375.619 460.756 373.008C463.003 367.84 465.051 364.131 467.169 360.276C471.373 352.725 475.645 345.562 480.026 337.859C486.587 326.374 491.813 315.448 496.861 304.82C504.107 289.47 511.515 274.377 520.223 262.26C521.379 260.637 522.831 259.296 524.005 258.364C524.19 258.161 524.373 257.961 524.555 257.763C526.853 255.262 528.944 252.975 529.299 251.083C530.283 245.603 533.202 236.624 536.922 227.302C539.634 220.447 542.577 213.568 545.119 207.276C549.533 201.244 553.846 195.576 558.21 189.935C581.056 160.391 604.127 131.072 626.177 102.235C627.043 101.098 627.857 100.024 628.691 98.9217C631.204 95.5941 633.734 92.2158 635.848 89.2677C636.868 87.8458 637.904 86.3449 638.142 85.911C638.188 85.8249 638.162 85.8361 637.955 86.1416C637.7 86.5546 637.401 86.8838 636.112 89.377C635.373 91.0736 634.472 91.9681 632.381 99.38C632.117 100.407 631.853 101.555 631.61 102.865C631.482 103.558 631.389 104.086 631.247 105.073C631.104 106.074 630.978 107.159 630.883 108.344C630.746 113.178 629.728 118.768 634.228 131.704C636.933 142.704 654.836 160.58 666.273 163.246C672.06 165.334 677.098 166.091 681.185 166.359C684.39 166.56 687.049 166.457 689.319 166.259C694.139 165.784 696.082 165.23 698.192 164.708C700.272 164.153 701.475 163.734 702.534 163.358C704.727 162.558 705.751 162.08 706.712 161.642C708.427 160.837 709.11 160.445 709.637 160.16C712.414 158.581 712.617 158.29 712.381 158.541C712.119 158.777 711.394 159.396 710.623 160.077C709.015 161.493 707.077 163.25 705.096 165.071C701.112 168.738 696.906 172.7 692.719 176.676C683.273 181.574 673.62 187.14 664.087 193.461C658.457 197.206 652.396 201.838 645.721 207.295C637.547 213.972 628.44 221.9 618.029 230.989C604.143 243.11 587.969 257.263 568.66 273.221C532.902 302.775 498.998 336.095 478.17 358.39C473.787 363.083 469.327 367.888 464.678 372.926C457.436 380.767 449.339 389.527 439.631 399.959C433.457 406.586 426.65 413.871 418.803 422.24C414.898 426.406 410.761 430.817 406.321 435.542C404.064 437.939 401.866 440.288 399.258 443.013C399.098 443.18 398.943 443.343 398.788 443.505C398.605 443.694 398.427 443.878 398.253 444.058C398.078 444.239 397.911 444.411 397.737 444.59C397.532 444.798 397.332 445.001 397.133 445.203C396.775 445.567 396.254 446.085 395.666 446.65C395.485 446.823 395.295 447.002 395.089 447.194C394.986 447.29 394.879 447.389 394.767 447.493C394.71 447.545 394.654 447.596 394.592 447.653C394.507 447.729 394.418 447.809 394.326 447.891C393.954 448.222 393.525 448.598 392.927 449.094C392.849 449.159 392.785 449.211 392.682 449.295C392.547 449.406 392.401 449.523 392.244 449.648C391.93 449.897 391.57 450.178 391.131 450.506C390.691 450.836 390.173 451.213 389.506 451.669C389.172 451.898 388.799 452.146 388.371 452.421C388.157 452.558 387.929 452.702 387.683 452.854C387.163 453.175 386.374 453.645 385.481 454.129C383.618 455.101 381.263 456.415 376.286 457.9C371.384 458.982 362.753 462.234 346.699 456.476C339.985 454.502 326.891 444.23 322.845 434.865C318.033 425.314 317.709 417.741 317.769 412.757C318.266 402.795 320.115 399.562 321.048 396.797C321.178 396.472 321.304 396.168 321.425 395.882C321.452 395.819 321.498 395.714 321.505 395.696C321.516 395.67 321.527 395.645 321.538 395.619C321.56 395.568 321.582 395.517 321.604 395.467C321.691 395.267 321.776 395.077 321.859 394.894C322.024 394.529 322.18 394.197 322.328 393.89C322.623 393.276 322.887 392.761 323.125 392.31C323.601 391.41 323.981 390.754 324.305 390.207C324.467 389.935 324.615 389.692 324.751 389.471C324.889 389.248 325.017 389.046 325.075 388.953C325.223 388.72 325.357 388.513 325.48 388.323C325.728 387.944 325.935 387.635 326.119 387.364C326.527 386.769 326.661 386.578 326.869 386.282C327.052 386.021 327.247 385.749 327.36 385.588C327.871 384.87 328.191 384.423 328.504 383.982C329.088 383.158 329.529 382.524 329.968 381.884C332.21 378.613 334.847 374.668 337.531 370.604C344.663 359.792 351.615 349.046 358.011 338.925C381.609 300.975 405.315 271.57 422.994 248.386C423.203 248.117 423.411 247.847 423.62 247.578C435.219 232.617 444.773 220.361 451.902 210.804C464.272 194.212 479.604 173.888 493.477 153.939C499.485 145.274 505.296 136.531 509.346 129.422C510.287 127.763 511.146 126.145 511.663 125.037C511.912 124.504 512.066 124.116 512.078 124.021C512.08 123.982 512.04 124.033 511.956 124.2C511.859 124.401 511.698 124.768 511.479 125.373C511.369 125.677 511.246 126.036 511.109 126.478C510.94 127.026 510.753 127.69 510.558 128.505C510.172 130.332 509.736 131.67 509.477 136.573C509.569 141.232 508.718 146.911 514.371 159.618C519.37 171.493 534.435 183.626 545.85 186.258C554.936 188.816 561.058 188.301 564.816 187.935C567.811 187.594 569.86 187.1 571.36 186.695C571.733 186.593 572.081 186.491 572.376 186.402C572.607 186.332 572.82 186.266 573.018 186.203C573.413 186.076 573.746 185.963 574.026 185.864C574.585 185.667 574.938 185.529 575.142 185.454C575.891 185.173 573.455 186.554 571.584 187.853C569.431 189.298 567.277 190.831 564.911 192.558C560.517 195.786 556.095 199.23 552.51 202.136C546.501 206.991 540.462 212.13 533.612 218.041C514.868 234.258 492.2 254.644 460.29 282.518C426.798 311.832 405.379 329.363 382.565 347.052C373.256 354.285 364.023 359.175 354.31 364.393C344.958 369.404 335.429 374.491 325.376 381.968C322.591 383.868 316.852 389.001 312.291 393.66C308.758 397.252 305.164 401.313 301.377 405.57C294.406 413.398 286.847 421.851 277.559 429.374C274.299 432.012 271.105 433.956 267.808 435.957C264.122 438.187 260.832 440.147 255.874 443.923C254.283 445.101 252.867 446.227 249.365 448.466C248.369 449.091 247.237 449.776 245.716 450.593C244.603 451.187 243.135 451.937 241.145 452.772C240.14 453.193 238.981 453.644 237.561 454.116C236.85 454.351 236.073 454.591 235.209 454.831C234.776 454.951 234.322 455.071 233.842 455.189C233.713 455.221 233.083 455.373 232.556 455.487C232.009 455.606 231.43 455.723 230.816 455.833C225.968 456.557 218.455 457.885 206.409 453.876C194.163 450.372 180.758 436.102 177.671 425.679C170.746 403.791 177.489 394.752 177.317 393.124C179.076 388.19 180.436 385.933 181.541 383.963C192.835 365.797 199.263 358.783 206.615 348.77C217.438 334.579 226.541 322.962 232.64 316.212C235.26 313.311 237.773 310.381 240.399 307.188C248.536 297.298 256.539 286.301 264.611 275.23C272.7 264.135 280.841 252.984 289.378 242.674C313.752 213.232 345.631 171.431 377.594 127.741C389.697 111.195 401.754 98.6891 417.146 82.6884C418.771 80.9931 420.414 79.2815 422.033 77.6013C430.452 68.8027 439.784 58.9654 450.439 46.9524C453.769 43.193 456.503 39.5404 458.875 35.9779C460.028 34.2381 461.098 32.5115 461.961 30.9789C462.392 30.2145 462.771 29.4937 462.882 29.1146C462.911 29.0189 462.907 28.9671 462.855 28.982C462.786 29.0218 462.716 29.0568 462.402 29.4656C462.327 29.563 462.24 29.6781 462.141 29.8156C462.041 29.9544 461.867 30.2106 461.686 30.4866C461.49 30.7883 461.318 31.0519 460.991 31.5991C460.608 32.2471 460.133 33.074 459.498 34.3419C459.418 34.5011 459.336 34.6677 459.251 34.8427C459.117 35.1226 458.968 35.4377 458.815 35.7744C458.508 36.4509 458.168 37.2365 457.793 38.1983C457.418 39.1619 457.006 40.2989 456.57 41.7342C456.461 42.0933 456.351 42.4717 456.24 42.872C456.185 43.0722 456.129 43.2779 456.074 43.4896C456.046 43.5954 456.018 43.7027 455.99 43.8116C455.976 43.866 455.962 43.9208 455.948 43.976C455.93 44.0473 455.895 44.1889 455.869 44.2978C455.422 46.1468 454.961 48.407 454.677 51.4212C454.608 57.714 452.586 65.766 462.244 82.5381C468.609 93.094 481.349 101.357 491.028 103.622C500.441 106.239 509.086 105.065 510.465 104.869C516.2 104.049 519.4 102.838 521.827 101.924C523.025 101.454 523.993 101.025 524.82 100.637C525.409 100.36 525.893 100.121 526.345 99.8895C529.897 98.0211 530.64 97.391 531.396 96.9209C532.078 96.4653 532.289 96.3175 532.355 96.2819C533.001 95.9269 532.141 96.6908 531.602 97.2197C526.189 102.371 521.875 106.489 516.795 110.146C515.607 111 514.372 111.826 513.167 112.558C507.629 115.932 503.18 116.519 498.839 117.176C494.053 117.88 489.53 118.574 484.339 123.083C481.611 125.458 478.762 129.032 475.389 133.309C474.059 134.997 472.64 136.796 471.101 138.69C470.925 138.268 470.705 137.94 470.521 137.705C469.173 136.082 463.03 139.508 456.905 143.011C454.421 144.438 452.071 145.773 449.945 146.854C442.309 150.67 429.716 160.521 420.416 168.283C416.425 171.608 412.421 174.064 407.741 176.947C404.164 179.155 400.277 181.544 395.602 184.846C394.836 185.384 394.047 185.948 393.233 186.542C390.026 188.885 387.242 190.413 385.004 191.619C383.367 192.505 381.96 193.27 380.784 194.147C379.75 194.918 379.4 196 378.966 197.251C378.657 198.149 378.32 199.124 377.705 200.091C376.225 202.411 373.811 204.763 371.851 206.061C370.941 206.665 370.131 207.039 369.324 207.411C368.386 207.843 367.44 208.279 366.332 209.085C361.303 212.738 357.075 217.202 352.695 221.834C347.903 226.907 342.902 232.204 336.328 236.972C334.269 238.462 331.931 239.866 329.65 241.239C327.258 242.68 324.955 244.067 323.155 245.443C315.818 251.056 310.223 257.791 305.059 264.006C301.62 268.144 298.391 272.034 294.988 275.196C288.76 280.982 286.462 285.323 284.773 288.522C283.897 290.18 283.186 291.536 282.165 292.633C281.093 293.483 279.998 294.34 278.924 295.171C277.89 295.88 276.822 296.612 275.934 297.429C275.866 297.491 275.803 297.555 275.736 297.617C269.676 302.219 263.6 306.599 257.561 310.955C244.006 320.728 230.617 330.401 217.92 342.348C215.193 344.915 212.785 347.974 210.33 351.09C207.377 354.86 204.23 358.828 200.481 361.971C191.433 369.557 181.583 376.438 171.922 383.197C165.282 387.852 158.772 392.414 152.674 397.099C144.837 403.165 137.367 409.346 130.479 416.105C126.39 420.127 122.341 424.531 117.977 428.917C115.52 431.375 112.944 433.854 109.841 436.422C110.031 435.136 109.911 434.111 109.796 433.157C109.553 431.186 109.227 429.605 111.4 426.583C116.324 419.565 119.989 411.385 117.465 409.446C116.764 408.929 116.361 408.066 115.967 407.188C114.982 404.968 113.943 402.803 108.096 405.768C104.049 407.809 94.2994 412.808 87.2167 418.3C85.5473 419.553 84.8351 420.716 83.4952 422.171C82.2478 423.428 81.208 424.928 76.802 426.446C75.4646 426.834 73.8482 427.196 71.6428 427.302C68.6956 427.229 65.7737 427.564 59.5333 424.325C53.6989 421.554 48.4137 412.972 47.8049 408.232C46.7402 402.658 47.2718 399.946 47.73 397.066C48.0145 395.53 48.3883 394.105 48.818 392.742C49.1788 391.585 49.5565 390.534 49.9808 389.466C53.1359 381.773 56.3847 376.914 56.6616 374.16C57.0739 370.996 55.3415 370.633 53.3925 370.075C50.7907 369.477 47.7129 368.612 48.2798 361.618C48.4679 360.138 49.4978 358.316 50.3775 356.835C50.9835 355.808 51.4799 354.984 51.3485 354.805C51.2131 354.579 50.5897 354.559 49.7736 354.571C46.8872 354.685 42.0164 354.336 49.3027 344.714C51.2107 342.226 53.7171 339.439 55.8599 337.122C56.5271 336.398 57.1807 335.692 57.798 335.019C59.9978 332.639 61.6698 330.722 61.5459 330.074C61.4849 329.766 61.3729 329.486 61.2375 329.219C63.6091 326.565 66.1457 323.761 68.486 321.21C72.0897 318.271 76.3235 313.393 81.4868 307.543C82.7551 306.106 84.1271 304.561 85.4889 303.045C90.2415 298.05 95.0322 293.064 99.7303 288.213C103.682 284.415 107.937 280.612 112.678 276.762C122.185 269.042 131.381 263.327 140.371 257.744C144.17 255.38 147.911 253.068 151.634 250.628C150.574 251.947 149.647 253.157 149.002 254.151C144.57 260.97 144.423 265.248 144.3 269.173C144.203 271.799 144.113 274.275 142.787 277.229C140.369 282.628 142.362 283.79 143.87 284.611C144.648 285.042 145.276 285.405 145.068 286.242C144.898 286.916 144.056 288.048 143.194 289.211C142.442 290.225 141.671 291.27 141.309 292.056C136.821 301.696 140.295 300.774 145.343 299.435C148.148 298.677 151.353 297.881 154.034 298.589C156.69 299.534 156.967 300.343 154.157 304.864C157.848 302.779 161.645 300.587 165.348 298.499C166.381 297.273 166.631 295.838 166.839 293.675C167.23 289.791 173.407 281.934 178.239 275.794C180.498 272.928 182.428 270.469 183.38 268.923C188.435 260.707 184.599 260.864 181.209 261.019C179.345 261.102 177.626 261.172 177.604 259.84C177.594 259.272 176.908 259.428 176.214 259.581C175.677 259.7 175.129 259.823 174.879 259.615C173.072 258.096 175.627 252.813 177.967 247.939C179.313 245.141 180.604 242.455 180.975 240.682C181.09 240.14 181.135 239.665 181.169 239.212C181.22 238.552 181.275 237.914 181.567 237.106C182.23 235.27 184.396 232.192 186.739 228.852C187.945 227.135 189.205 225.339 190.347 223.591C191.825 221.326 191.79 219.996 191.767 218.592C191.749 217.6 191.74 216.57 192.249 215.165C193.172 212.622 196.313 208.682 199.219 205.023C200.485 203.43 201.706 201.885 202.684 200.537C203.081 199.988 203.183 199.642 203.069 199.441C207.713 193.327 212.091 187.451 216.327 181.724C235.994 155.004 253.104 131.678 279.452 101.995C281.043 100.222 282.418 98.6442 283.748 97.022C285.477 94.9439 286.833 92.757 287.313 91.6402C287.551 91.1198 287.564 90.8401 287.347 91.4458C287.176 92.0744 286.605 93.4805 286.783 97.3498C287.068 100.287 288.174 105.173 291.419 110.021C294.621 114.959 299.686 118.693 303.414 120.282C311.167 123.381 313.094 122.023 313.458 122.072C313.828 121.653 309.323 122.699 305.223 124.76C296.524 128.917 286.487 136.41 277.461 144.996C274.893 146.105 272.35 147.38 269.522 149.219L269.996 148.676C266.955 150.876 263.678 153.466 260.208 156.413C247.51 167.072 235.729 179.656 221.978 194.053C211.687 204.826 200.291 216.627 186.084 229.781C162.137 251.761 138.085 274.523 108.606 299.426C103.098 303.996 97.457 308.515 91.1164 312.991C82.2788 319.17 73.3057 325.201 63.6435 330.844C58.8233 333.635 53.8133 336.378 48.126 338.831C45.2369 340.05 42.1956 341.263 38.0896 342.232C35.9386 342.692 33.6539 343.203 29.7735 343.08C27.7851 342.948 25.4088 342.82 21.6738 341.202C19.7365 340.299 17.6092 339.105 15.2347 336.516C14.9499 336.199 14.6749 335.872 14.4106 335.534C14.1087 335.148 13.8055 334.727 13.5267 334.303C12.9747 333.459 12.4567 332.551 11.9394 331.332C11.6878 330.728 11.4924 330.204 11.2656 329.447C11.0294 328.649 10.8368 327.804 10.7041 326.872C10.5915 326.121 10.4352 324.481 10.6026 322.774C10.9212 321.561 10.4085 317.541 15.9188 311.812L13.5277 314.624C19.1568 306.613 24.4957 298.969 29.2388 292.133C38.5262 278.748 49.7399 265.637 60.1856 253.442C63.9269 249.071 67.5753 244.809 70.9734 240.746C71.0055 240.702 71.0983 240.565 71.1315 240.521C81.6848 228.569 90.3686 218.243 94.0987 209.424C95.6913 205.658 96.6101 201.543 97.5289 197.53C98.1742 194.683 98.8589 191.843 99.72 189.288C104.172 184.083 108.656 178.895 113.176 173.74C120.212 167.596 129.715 158.67 138.334 148.043C141.032 144.702 143.179 141.51 144.818 138.098C146.523 135.953 148.025 133.399 148.153 133.291C148.163 133.322 148.15 133.416 148.119 133.643C148.081 133.902 148.024 134.317 148.009 134.92C147.994 136.126 148.024 139.257 150.594 142.742C153.263 146.277 156.728 147.281 158.009 147.488C159.458 147.72 159.829 147.573 159.957 147.542C159.987 147.294 156.762 148.023 154.238 149.03C151.548 150.049 148.712 151.371 145.934 152.837C140.396 155.769 134.862 159.373 130.632 163.049C129.808 163.766 129.031 164.5 128.412 165.136C126.116 167.629 123.849 170.072 121.536 172.55C121.504 172.583 121.472 172.616 121.441 172.649C114.793 179.767 107.989 186.914 101.264 193.83C98.3794 196.799 95.4819 199.759 92.5867 202.694C85.2063 210.182 77.7298 217.632 70.3507 224.905C66.4438 228.755 62.5026 232.628 58.5487 236.504C52.1426 242.784 45.6711 249.121 39.2787 255.408C28.9243 265.59 18.6544 275.779 8.48045 286.046C6.79339 287.749 5.03535 289.171 3.50906 290.06C1.98597 290.944 0.838921 291.204 0.316732 290.732C-0.205986 290.262 -0.0720427 289.085 0.647085 287.469C1.37016 285.852 2.60362 283.954 4.12538 282.098C13.3154 270.886 22.6321 259.739 32.0334 248.619C37.8323 241.757 43.7044 234.849 49.5085 228.017C53.0927 223.799 56.6598 219.601 60.1884 215.424C66.8541 207.538 73.6066 199.494 80.2347 191.457C82.8322 188.305 85.43 185.132 88.0102 181.955C94.042 174.528 100.137 166.9 106.076 159.31C106.112 159.264 106.148 159.218 106.183 159.173C108.206 156.589 110.181 154.045 112.187 151.449C113.263 150.074 114.427 148.756 115.584 147.537C127.765 136.14 137.63 127.071 157.956 122.266C158.825 122.178 159.716 122.134 160.685 122.166C161.815 122.214 162.938 122.334 164.34 122.715C167.119 123.288 171.638 126.383 173.025 130.432C175.32 138.338 173.085 140.721 172.334 143.619C170.263 148.787 167.832 152.458 165.417 156.093C163.272 159.259 161.069 162.226 158.698 165.259C158.19 165.914 157.684 166.567 157.183 167.216C155.758 169.056 154.308 170.932 152.863 172.814C131.998 200.093 111.864 228.069 92.9551 256.241L93.1772 255.924C82.4631 273.018 71.6654 290.293 60.8576 307.549C55.1257 316.708 49.3301 325.957 43.6243 335.071C43.1632 335.785 41.5366 337.637 40.9331 338.236C44.3594 334.903 45.4406 331.946 46.1246 329.804C46.2875 329.259 46.4134 328.75 46.5141 328.272C46.5963 327.878 46.6381 327.638 46.6864 327.339C46.7772 326.768 46.8349 326.24 46.8713 325.746C47.0144 323.774 46.8227 322.254 46.6816 321.368C46.5216 320.369 46.2775 319.418 46.0285 318.648C45.8111 317.973 45.5638 317.337 45.2901 316.73C44.2114 314.37 43.0044 312.862 41.8899 311.684C39.6024 309.332 37.5728 308.33 36.109 307.7C33.1429 306.525 31.7412 306.59 30.9199 306.516C30.0664 306.486 29.7399 306.525 29.5704 306.523C29.4168 306.524 29.4557 306.499 29.5742 306.443C30.1398 306.213 31.7403 305.533 33.3694 304.679C36.6716 302.968 40.5445 300.581 44.3327 298.047C51.9995 292.911 59.7102 287.052 67.4374 280.902C83.3772 267.795 99.8375 250.325 115.417 233.447C151.791 193.614 186.814 151.579 220.875 109.384C221.127 109.073 221.38 108.761 221.56 108.533C221.653 108.417 221.733 108.315 221.801 108.227C222.005 107.98 222.106 107.852 222.094 107.858C222.175 107.759 222.431 107.474 222.514 107.376C239.841 87.5665 257.84 68.5857 289.472 55.985C297.894 53.2731 306.928 49.8318 323.128 52.443C331.048 53.8572 342.802 58.8346 350.412 69.573C358.035 80.2404 358.978 91.4131 358.568 98.869C354.847 127.346 344.715 136.186 336.301 148.503C269.105 235.12 192.402 313.687 127.142 393.111C121.639 400.075 116.341 407.2 112.877 412.87C112.088 414.168 111.391 415.443 111.163 415.997C111.06 416.247 111.066 416.344 111.308 415.877C111.556 415.305 112.125 414.394 112.968 410.802C113.175 409.869 113.442 408.417 113.605 406.777C113.758 405.016 113.908 403.473 113.681 400.054C113.409 396.821 112.898 393.318 111.053 388.42C109.088 383.215 105.443 377.38 100.57 372.852C95.7781 368.293 89.8666 365.177 85.2858 363.665C81.1809 362.277 77.6374 361.757 74.7714 361.567C69.7065 361.279 66.9767 361.825 65.2094 362.127C61.7817 362.823 60.9798 363.25 60.4031 363.42C59.9593 363.572 60.0241 363.525 60.2537 363.371C67.9572 358.748 84.3929 345.126 97.1967 333.291C177.186 260.49 257.394 188.561 339.437 117.361C376.41 85.5688 413.336 53.7397 454.245 23.3717C454.333 23.3062 454.42 23.241 454.507 23.1763C457.168 21.1888 459.837 19.1899 462.421 17.2386C463.723 16.2553 464.994 15.2912 466.203 14.3639C466.802 13.9042 467.388 13.4524 467.934 13.0261C468.213 12.8091 468.471 12.6064 468.81 12.3423C469.145 12.0834 469.665 11.6724 470.777 10.8599C471.044 10.6754 471.591 10.2353 473.576 8.95064C474.586 8.32236 476.319 7.16655 479.873 5.46202C482.556 4.27805 486.08 2.43027 494.28 0.892731C496.707 0.736031 507.731 -2.4344 524.933 4.2046C533.3 7.50233 542.436 14.1688 548.42 22.2669C555.105 31.6511 555.845 35.4493 557.495 40.3834C562.258 58.9406 558.142 67.7105 557.751 70.6005C557.035 73.2254 556.353 75.0861 555.757 76.6037C555.162 78.1044 554.62 79.2932 554.186 80.2026C553.905 80.7925 553.645 81.3105 553.405 81.7781C552.439 83.6447 551.751 84.7717 551.405 85.352C551.003 86.0185 550.603 86.6472 550.358 87.0267C550.123 87.3916 549.908 87.7189 549.705 88.0233C549.255 88.695 549.056 88.984 548.768 89.3992C547.769 90.8357 547.15 91.6805 546.55 92.5043C545.375 94.1093 544.379 95.4381 543.425 96.7056C541.491 99.2727 539.674 101.649 537.858 104.012C534.175 108.803 530.673 113.314 527.071 117.936C519.906 127.129 512.793 136.189 505.575 145.353C492.791 161.584 479.917 177.846 467.267 193.811C435.853 233.438 405.052 272.148 373.56 311.737C364.034 323.722 354.173 336.119 344.189 348.698Z" fill="#EFE8D7"/>
</svg>
